<svg width="139" height="45" viewBox="0 0 139 45" fill="none" xmlns="http://www.w3.org/2000/svg">
<path d="M0.800781 10.5C0.800781 4.97715 5.27793 0.5 10.8008 0.5H128.167C133.689 0.5 138.167 4.97715 138.167 10.5V34.5C138.167 40.0228 133.689 44.5 128.167 44.5H10.8008C5.27794 44.5 0.800781 40.0228 0.800781 34.5V10.5Z" fill="#090909"/>
<path d="M43.7541 11.9735C43.7261 11.6934 43.6514 11.4319 43.53 11.1891C43.4086 10.9432 43.2421 10.7269 43.0304 10.5401C42.8187 10.3533 42.5635 10.207 42.2646 10.1012C41.9689 9.99536 41.6312 9.94244 41.2514 9.94244C40.6756 9.94244 40.1837 10.0638 39.776 10.3066C39.3713 10.5463 39.0616 10.8825 38.8468 11.3152C38.6351 11.7479 38.5293 12.2521 38.5293 12.828V13.6358C38.5293 14.0685 38.5853 14.4638 38.6974 14.8217C38.8094 15.1797 38.9791 15.4879 39.2063 15.7462C39.4336 16.0046 39.7168 16.2054 40.0561 16.3486C40.3985 16.4886 40.7985 16.5587 41.2561 16.5587C41.6826 16.5587 42.053 16.4995 42.3674 16.3813C42.6849 16.2599 42.9479 16.0933 43.1565 15.8817C43.365 15.67 43.5207 15.4272 43.6234 15.1533C43.7261 14.8762 43.7775 14.5836 43.7775 14.2755V13.0054H41.2654V13.9439H42.5775V14.3502C42.5775 14.5618 42.5292 14.7548 42.4327 14.9291C42.3362 15.1035 42.1915 15.2435 41.9985 15.3494C41.8055 15.4521 41.5627 15.5034 41.2701 15.5034C40.937 15.5034 40.6616 15.4256 40.4437 15.27C40.2258 15.1112 40.0639 14.8918 39.9581 14.6116C39.8553 14.3315 39.804 14.0046 39.804 13.6311V12.8373C39.804 12.2552 39.9285 11.8039 40.1775 11.4833C40.4297 11.1627 40.783 11.0023 41.2374 11.0023C41.4117 11.0023 41.5705 11.0257 41.7137 11.0724C41.86 11.1191 41.9861 11.186 42.0919 11.2732C42.2008 11.3572 42.2911 11.4584 42.3627 11.5767C42.4343 11.6949 42.4857 11.8272 42.5168 11.9735H43.7541Z" fill="white"/>
<path d="M47.0903 16.526C47.4452 16.526 47.7503 16.4778 48.0055 16.3813C48.2608 16.2848 48.4709 16.1602 48.6359 16.0077C48.8039 15.8552 48.9316 15.6933 49.0187 15.5221C49.1059 15.3478 49.1557 15.1828 49.1681 15.0272H48.0008C47.9853 15.1299 47.9355 15.2233 47.8514 15.3073C47.7705 15.3914 47.6647 15.4583 47.5339 15.5081C47.4032 15.5548 47.2538 15.5782 47.0857 15.5782C46.7651 15.5782 46.5098 15.4739 46.3199 15.2653C46.1301 15.0568 46.0351 14.7906 46.0351 14.4669V14.2334H49.2148V13.6638C49.2148 13.1969 49.1214 12.7938 48.9347 12.4545C48.7479 12.1152 48.4911 11.8537 48.1643 11.67C47.8374 11.4864 47.4592 11.3946 47.0296 11.3946C46.6188 11.3946 46.2468 11.4817 45.9137 11.656C45.5806 11.8304 45.3161 12.0872 45.12 12.4265C44.927 12.7626 44.8305 13.1751 44.8305 13.6638V14.2521C44.8305 14.7377 44.9223 15.1501 45.1059 15.4894C45.2927 15.8287 45.5557 16.0871 45.895 16.2645C46.2343 16.4388 46.6328 16.526 47.0903 16.526ZM46.0351 13.4864C46.0351 13.477 46.0351 13.4692 46.0351 13.463C46.0351 13.4537 46.0351 13.4443 46.0351 13.435C46.0351 13.2109 46.0771 13.0163 46.1612 12.8513C46.2452 12.6833 46.362 12.5525 46.5114 12.4591C46.6608 12.3658 46.8351 12.3191 47.0343 12.3191C47.2335 12.3191 47.4063 12.3658 47.5526 12.4591C47.702 12.5525 47.8172 12.6833 47.8981 12.8513C47.9822 13.0163 48.0242 13.2109 48.0242 13.435C48.0242 13.4443 48.0242 13.4537 48.0242 13.463C48.0242 13.4692 48.0242 13.477 48.0242 13.4864H46.0351Z" fill="white"/>
<path d="M50.7161 11.53H49.9363V12.4731H50.6881V15.0365C50.6881 15.3727 50.7394 15.6466 50.8421 15.8583C50.9449 16.0669 51.1161 16.2209 51.3557 16.3206C51.5954 16.4171 51.9207 16.4653 52.3316 16.4653C52.4717 16.4653 52.6149 16.4591 52.7612 16.4466C52.9106 16.4342 53.0086 16.4233 53.0553 16.4139V15.5034C53.0118 15.5066 52.9495 15.5112 52.8686 15.5175C52.7876 15.5206 52.7083 15.5221 52.6304 15.5221C52.3721 15.5221 52.1869 15.477 52.0748 15.3867C51.9659 15.2933 51.9114 15.1237 51.9114 14.8778V12.4731H53.0086V11.53H51.9114V10.2973H50.7161V11.53Z" fill="white"/>
<path d="M56.2446 16.4373H57.4726V11.4833H56.2446V16.4373ZM56.0858 10.0218C56.0858 10.221 56.1574 10.3845 56.3006 10.5121C56.4438 10.6366 56.629 10.6989 56.8562 10.6989C57.0866 10.6989 57.2734 10.6366 57.4165 10.5121C57.5597 10.3845 57.6313 10.221 57.6313 10.0218C57.6313 9.81638 57.5597 9.6514 57.4165 9.52689C57.2734 9.39926 57.0866 9.33545 56.8562 9.33545C56.629 9.33545 56.4438 9.39926 56.3006 9.52689C56.1574 9.6514 56.0858 9.81638 56.0858 10.0218Z" fill="white"/>
<path d="M59.2726 11.53H58.4929V12.4731H59.2446V15.0365C59.2446 15.3727 59.296 15.6466 59.3987 15.8583C59.5014 16.0669 59.6726 16.2209 59.9123 16.3206C60.152 16.4171 60.4773 16.4653 60.8882 16.4653C61.0283 16.4653 61.1714 16.4591 61.3177 16.4466C61.4672 16.4342 61.5652 16.4233 61.6119 16.4139V15.5034C61.5683 15.5066 61.5061 15.5112 61.4251 15.5175C61.3442 15.5206 61.2648 15.5221 61.187 15.5221C60.9286 15.5221 60.7434 15.477 60.6314 15.3867C60.5224 15.2933 60.4679 15.1237 60.4679 14.8778V12.4731H61.5652V11.53H60.4679V10.2973H59.2726V11.53Z" fill="white"/>
<path d="M66.7575 11.3946C66.3031 11.3946 65.9046 11.4895 65.5622 11.6794C65.2229 11.8693 64.9583 12.1354 64.7685 12.4778C64.5786 12.8171 64.4836 13.2171 64.4836 13.6778V14.2241C64.4836 14.7159 64.577 15.133 64.7638 15.4754C64.9537 15.8178 65.2183 16.0793 65.5576 16.2599C65.9 16.4373 66.3 16.526 66.7575 16.526C67.2089 16.526 67.6042 16.4357 67.9435 16.2552C68.2828 16.0746 68.5458 15.8132 68.7326 15.4708C68.9225 15.1284 69.0174 14.7128 69.0174 14.2241V13.6685C69.0174 13.2015 68.9225 12.7984 68.7326 12.4591C68.5458 12.1167 68.2828 11.8537 67.9435 11.67C67.6042 11.4864 67.2089 11.3946 66.7575 11.3946ZM66.7575 12.3471C66.9848 12.3471 67.1731 12.4078 67.3225 12.5292C67.475 12.6506 67.5887 12.814 67.6634 13.0194C67.7381 13.2218 67.7754 13.449 67.7754 13.7011V14.2148C67.7754 14.4638 67.7396 14.691 67.668 14.8965C67.5964 15.1019 67.4859 15.2653 67.3365 15.3867C67.1871 15.5081 66.9941 15.5688 66.7575 15.5688C66.521 15.5688 66.3264 15.5081 66.1739 15.3867C66.0214 15.2622 65.9077 15.0988 65.833 14.8965C65.7614 14.691 65.7256 14.4638 65.7256 14.2148V13.7011C65.7256 13.4521 65.763 13.2249 65.8377 13.0194C65.9155 12.814 66.0307 12.6506 66.1832 12.5292C66.3358 12.4078 66.5272 12.3471 66.7575 12.3471Z" fill="white"/>
<path d="M70.1638 16.4373H71.3918V13.6918C71.3918 13.4428 71.4323 13.2249 71.5132 13.0381C71.5941 12.8482 71.7124 12.7004 71.8681 12.5945C72.0237 12.4887 72.212 12.4358 72.433 12.4358C72.6011 12.4358 72.7521 12.4716 72.8859 12.5432C73.0198 12.6117 73.1256 12.7206 73.2034 12.87C73.2844 13.0194 73.3248 13.2171 73.3248 13.463V16.4373H74.5528V13.1175C74.5528 12.5447 74.4019 12.1167 74.0999 11.8335C73.798 11.5471 73.398 11.4039 72.8999 11.4039C72.5762 11.4039 72.3132 11.4568 72.1109 11.5627C71.9085 11.6685 71.7529 11.7946 71.6439 11.9409C71.5381 12.0872 71.465 12.2257 71.4245 12.3564H71.3638V11.4833H70.1638V16.4373Z" fill="white"/>
<path d="M65.897 24.6241C65.0018 24.6262 64.1273 24.8937 63.3842 25.3928C62.641 25.8919 62.0625 26.6001 61.7219 27.428C61.3813 28.2559 61.2938 29.1662 61.4705 30.0437C61.6472 30.9213 62.0801 31.7268 62.7146 32.3583C63.3491 32.9899 64.1566 33.4191 65.0351 33.5916C65.9135 33.7642 66.8233 33.6725 67.6496 33.3279C68.4758 32.9834 69.1814 32.4016 69.677 31.6561C70.1726 30.9106 70.436 30.0349 70.4339 29.1397C70.4426 28.5425 70.331 27.9497 70.1058 27.3965C69.8806 26.8433 69.5464 26.3411 69.123 25.9198C68.6997 25.4985 68.196 25.1666 67.6417 24.944C67.0875 24.7214 66.4942 24.6126 65.897 24.6241ZM65.897 31.8809C65.3483 31.9193 64.8008 31.7917 64.3256 31.5148C63.8503 31.2378 63.4694 30.8243 63.2323 30.328C62.9952 29.8317 62.9129 29.2756 62.9961 28.7318C63.0792 28.1881 63.324 27.682 63.6987 27.2793C64.0733 26.8766 64.5604 26.5958 65.0967 26.4736C65.633 26.3514 66.1937 26.3934 66.7058 26.594C67.2179 26.7947 67.6578 27.1448 67.9684 27.5988C68.2789 28.0527 68.4457 28.5897 68.447 29.1397C68.4641 29.4882 68.4113 29.8366 68.2916 30.1644C68.1719 30.4922 67.9878 30.7926 67.7502 31.0481C67.5125 31.3036 67.2261 31.5089 66.9078 31.652C66.5896 31.795 66.2459 31.8728 65.897 31.8809ZM55.9945 24.6241C55.0993 24.6262 54.2248 24.8937 53.4817 25.3928C52.7385 25.8919 52.16 26.6001 51.8194 27.428C51.4788 28.2559 51.3913 29.1662 51.568 30.0437C51.7447 30.9213 52.1776 31.7268 52.8121 32.3583C53.4466 32.9899 54.2541 33.4191 55.1326 33.5916C56.011 33.7642 56.9208 33.6725 57.7471 33.3279C58.5733 32.9834 59.2789 32.4016 59.7745 31.6561C60.2701 30.9106 60.5335 30.0349 60.5314 29.1397C60.5401 28.5425 60.4285 27.9497 60.2033 27.3965C59.9781 26.8433 59.6439 26.3411 59.2205 25.9198C58.7972 25.4985 58.2935 25.1666 57.7392 24.944C57.185 24.7214 56.5917 24.6126 55.9945 24.6241ZM55.9945 31.8809C55.4458 31.9193 54.8983 31.7917 54.423 31.5148C53.9478 31.2378 53.5669 30.8243 53.3298 30.328C53.0927 29.8317 53.0104 29.2756 53.0936 28.7318C53.1767 28.1881 53.4215 27.682 53.7962 27.2793C54.1708 26.8766 54.6579 26.5958 55.1942 26.4736C55.7305 26.3514 56.2912 26.3934 56.8033 26.594C57.3154 26.7947 57.7553 27.1448 58.0659 27.5988C58.3764 28.0527 58.5432 28.5897 58.5445 29.1397C58.5616 29.4882 58.5088 29.8366 58.3891 30.1644C58.2694 30.4922 58.0853 30.7926 57.8477 31.0481C57.61 31.3036 57.3236 31.5089 57.0053 31.652C56.6871 31.795 56.3434 31.8728 55.9945 31.8809ZM44.222 26.0159V27.9284H48.812C48.7401 28.8292 48.3656 29.6792 47.7495 30.3403C47.2891 30.8094 46.7353 31.1766 46.124 31.4182C45.5127 31.6598 44.8575 31.7704 44.2008 31.7428C42.8482 31.7428 41.551 31.2055 40.5945 30.2491C39.6381 29.2926 39.1008 27.9954 39.1008 26.6428C39.1008 25.2902 39.6381 23.993 40.5945 23.0366C41.551 22.0801 42.8482 21.5428 44.2008 21.5428C45.4975 21.5235 46.7496 22.016 47.6858 22.9134L49.0351 21.5641C48.4019 20.9377 47.65 20.4441 46.8235 20.112C45.997 19.78 45.1126 19.6162 44.222 19.6303C43.2775 19.5936 42.3352 19.7479 41.4517 20.084C40.5682 20.4201 39.7616 20.9311 39.0803 21.5864C38.399 22.2417 37.857 23.0278 37.4868 23.8975C37.1166 24.7673 36.9258 25.7028 36.9258 26.6481C36.9258 27.5934 37.1166 28.529 37.4868 29.3987C37.857 30.2685 38.399 31.0546 39.0803 31.7099C39.7616 32.3652 40.5682 32.8762 41.4517 33.2123C42.3352 33.5484 43.2775 33.7027 44.222 33.6659C45.1309 33.7022 46.0372 33.5459 46.8814 33.2071C47.7255 32.8683 48.4885 32.3548 49.1201 31.7003C50.2359 30.4746 50.8304 28.8626 50.7776 27.2059C50.7815 26.8072 50.7494 26.4089 50.682 26.0159H44.222ZM92.3639 27.5034C92.0868 26.6882 91.5686 25.9764 90.878 25.4622C90.1874 24.948 89.3568 24.6557 88.4964 24.6241C87.9152 24.6229 87.34 24.741 86.8062 24.971C86.2725 25.201 85.7916 25.538 85.3932 25.9613C84.9949 26.3845 84.6876 26.8849 84.4904 27.4316C84.2931 27.9783 84.2101 28.5596 84.2464 29.1397C84.2373 30.1096 84.5422 31.0564 85.1157 31.8387C85.6891 32.621 86.5002 33.1968 87.4278 33.4802C88.3554 33.7635 89.3499 33.7391 90.2625 33.4106C91.1751 33.0822 91.957 32.4673 92.4914 31.6578L90.9508 30.5953C90.7211 30.9781 90.3954 31.2942 90.0058 31.5123C89.6163 31.7303 89.1765 31.8428 88.7301 31.8384C88.2696 31.8575 87.8141 31.7367 87.4235 31.4921C87.0329 31.2475 86.7254 30.8904 86.5414 30.4678L92.587 27.9709L92.3639 27.5034ZM86.2014 29.0122C86.1799 28.6822 86.2244 28.3511 86.3324 28.0385C86.4404 27.7259 86.6096 27.438 86.8303 27.1916C87.0509 26.9452 87.3185 26.7454 87.6174 26.6037C87.9162 26.462 88.2404 26.3814 88.5708 26.3666C88.9131 26.3457 89.254 26.4263 89.5507 26.5983C89.8475 26.7703 90.0869 27.026 90.2389 27.3334L86.2014 29.0122ZM81.2926 33.3897H83.2795V20.1084H81.2926V33.3897ZM78.0414 25.6334H77.967C77.6702 25.2954 77.3039 25.0255 76.8931 24.8421C76.4824 24.6587 76.0368 24.5662 75.587 24.5709C74.4259 24.6272 73.331 25.1281 72.5291 25.9698C71.7273 26.8115 71.28 27.9294 71.28 29.0919C71.28 30.2544 71.7273 31.3723 72.5291 32.2139C73.331 33.0556 74.4259 33.5565 75.587 33.6128C76.0375 33.6218 76.4844 33.5313 76.8958 33.3476C77.3072 33.164 77.673 32.8917 77.967 32.5503H78.0414V33.1984C78.0414 34.9303 77.117 35.8547 75.6295 35.8547C75.1326 35.8438 74.6502 35.6854 74.2434 35.3998C73.8367 35.1141 73.524 34.714 73.3451 34.2503L71.6239 34.9622C71.9421 35.7615 72.4954 36.4453 73.2106 36.9234C73.9259 37.4015 74.7693 37.6512 75.6295 37.6397C77.9564 37.6397 79.8795 36.2691 79.8795 32.9328V24.8897H78.0414V25.6334ZM75.757 31.8809C75.0609 31.8375 74.4075 31.5304 73.9298 31.0221C73.4522 30.5138 73.1864 29.8425 73.1864 29.145C73.1864 28.4475 73.4522 27.7762 73.9298 27.2679C74.4075 26.7596 75.0609 26.4525 75.757 26.4091C76.0973 26.4237 76.4311 26.5067 76.7386 26.6531C77.0462 26.7994 77.3211 27.0061 77.5471 27.2608C77.7731 27.5156 77.9456 27.8132 78.0542 28.136C78.1629 28.4588 78.2055 28.8001 78.1795 29.1397C78.2085 29.4804 78.1681 29.8235 78.0607 30.1482C77.9533 30.4728 77.7812 30.7723 77.5547 31.0286C77.3283 31.2848 77.0522 31.4925 76.7432 31.639C76.4342 31.7855 76.0987 31.8678 75.757 31.8809ZM101.671 20.1084H96.9114V33.3897H98.8983V28.3534H101.671C102.238 28.3941 102.806 28.3177 103.342 28.129C103.877 27.9402 104.368 27.6432 104.783 27.2564C105.199 26.8696 105.53 26.4014 105.757 25.8808C105.984 25.3603 106.101 24.7987 106.101 24.2309C106.101 23.6632 105.984 23.1016 105.757 22.5811C105.53 22.0605 105.199 21.5923 104.783 21.2055C104.368 20.8187 103.877 20.5217 103.342 20.3329C102.806 20.1442 102.238 20.0678 101.671 20.1084ZM101.671 26.4834H98.8983V21.9572H101.714C102.012 21.9572 102.308 22.016 102.584 22.1303C102.86 22.2445 103.111 22.412 103.322 22.6232C103.533 22.8343 103.7 23.0849 103.815 23.3608C103.929 23.6367 103.988 23.9323 103.988 24.2309C103.988 24.5295 103.929 24.8252 103.815 25.1011C103.7 25.3769 103.533 25.6276 103.322 25.8387C103.111 26.0499 102.86 26.2173 102.584 26.3316C102.308 26.4459 102.012 26.5047 101.714 26.5047L101.671 26.4834ZM113.933 24.5816C113.209 24.5369 112.488 24.7054 111.859 25.0661C111.231 25.4268 110.721 25.9639 110.395 26.6109L112.148 27.3441C112.325 27.0247 112.591 26.7634 112.913 26.5918C113.235 26.4203 113.601 26.3457 113.965 26.3772C114.217 26.3477 114.472 26.3688 114.716 26.4392C114.96 26.5095 115.188 26.6278 115.386 26.787C115.583 26.9462 115.748 27.1433 115.868 27.3666C115.989 27.5899 116.064 27.8351 116.09 28.0878V28.2153C115.451 27.8795 114.739 27.7044 114.018 27.7053C112.126 27.7053 110.193 28.7678 110.193 30.7016C110.211 31.1126 110.312 31.5157 110.49 31.8868C110.668 32.258 110.918 32.5897 111.226 32.8623C111.534 33.1348 111.894 33.3427 112.284 33.4734C112.674 33.6042 113.087 33.6552 113.497 33.6234C113.996 33.651 114.493 33.5455 114.937 33.3177C115.381 33.0899 115.757 32.7481 116.026 32.3272H116.09V33.3897H118.002V28.2791C118.002 25.9522 116.238 24.6028 113.975 24.6028L113.933 24.5816ZM113.688 31.8597C113.04 31.8597 112.137 31.5303 112.137 30.7334C112.137 29.6709 113.263 29.3097 114.262 29.3097C114.893 29.2941 115.517 29.4482 116.068 29.7559C116.002 30.333 115.728 30.8662 115.298 31.2569C114.868 31.6477 114.312 31.8694 113.731 31.8809L113.688 31.8597ZM124.972 24.8897L122.698 30.6484H122.635L120.276 24.8897H118.151L121.689 32.9434L119.67 37.4166H121.742L127.182 24.8897H124.972ZM107.122 33.3897H109.098V20.1084H107.122V33.3897Z" fill="white"/>
<path d="M9.9306 8.10161L22.759 21.7702L9.99219 35.5587C9.61962 35.3061 9.4199 34.759 9.41652 34.0524C9.41011 32.6971 9.30847 11.1936 9.30082 9.57998C9.29726 8.80613 9.56106 8.33411 9.9306 8.10161ZM26.9893 17.2016L11.3899 8.12004C11.2233 8.02298 11.034 7.9639 10.8455 7.9375L23.2896 21.197L26.9893 17.2016ZM27.683 25.878L23.824 21.7662L27.6791 17.6032L32.9879 20.6934C34.2957 21.4543 33.6267 22.4064 32.9879 22.7794L27.683 25.878ZM11.0497 35.5625C11.1585 35.5188 11.272 35.4637 11.3899 35.3934L26.9925 26.2809L23.2934 22.3395L11.0497 35.5625Z" fill="white"/>
</svg>
