<svg width="141" height="45" viewBox="0 0 141 45" fill="none" xmlns="http://www.w3.org/2000/svg">
<path d="M0 10.5C0 4.97715 4.47715 0.5 10 0.5H130.8C136.323 0.5 140.8 4.97715 140.8 10.5V34.5C140.8 40.0228 136.323 44.5 130.8 44.5H10C4.47716 44.5 0 40.0228 0 34.5V10.5Z" fill="#090909"/>
<path d="M27.2458 22.8307C27.2576 21.9126 27.5015 21.0124 27.9547 20.2138C28.408 19.4153 29.0558 18.7444 29.838 18.2635C29.3411 17.5538 28.6856 16.9698 27.9235 16.5578C27.1613 16.1457 26.3137 15.9171 25.4477 15.89C23.6006 15.6961 21.8098 16.9953 20.8685 16.9953C19.909 16.9953 18.4598 15.9093 16.8992 15.9414C15.8898 15.974 14.906 16.2675 14.0437 16.7934C13.1814 17.3193 12.4701 18.0595 11.979 18.942C9.85158 22.6253 11.4384 28.0385 13.4763 31.0157C14.4959 32.4736 15.6875 34.1021 17.2467 34.0444C18.7725 33.9811 19.3423 33.0714 21.184 33.0714C23.0087 33.0714 23.5433 34.0444 25.1341 34.0076C26.7714 33.9811 27.8029 32.5433 28.7867 31.0716C29.5193 30.0328 30.083 28.8847 30.457 27.6698C29.5058 27.2675 28.6941 26.5941 28.123 25.7336C27.552 24.8731 27.2469 23.8635 27.2458 22.8307Z" fill="white"/>
<path d="M24.2412 13.932C25.1339 12.8603 25.5737 11.4829 25.4672 10.0923C24.1034 10.2355 22.8436 10.8873 21.9389 11.9179C21.4965 12.4213 21.1577 13.007 20.9418 13.6414C20.726 14.2759 20.6373 14.9466 20.6808 15.6154C21.3629 15.6224 22.0378 15.4746 22.6545 15.183C23.2713 14.8914 23.8138 14.4636 24.2412 13.932Z" fill="white"/>
<path d="M46.5336 30.3537H41.3269L40.0765 34.0458H37.8711L42.8028 20.386H45.0941L50.0259 34.0458H47.7829L46.5336 30.3537ZM41.8661 28.65H45.9933L43.9587 22.658H43.9018L41.8661 28.65Z" fill="white"/>
<path d="M60.6768 29.0668C60.6768 32.1616 59.0203 34.15 56.5206 34.15C55.8874 34.1831 55.2576 34.0372 54.7035 33.7291C54.1493 33.4209 53.6931 32.9629 53.3871 32.4076H53.3398V37.3404H51.2956V24.0867H53.2743V25.7431H53.3119C53.632 25.1904 54.0959 24.7348 54.6543 24.4248C55.2127 24.1147 55.8447 23.9619 56.483 23.9825C59.0106 23.9825 60.6768 25.9805 60.6768 29.0668ZM58.5756 29.0668C58.5756 27.0505 57.5336 25.7249 55.9437 25.7249C54.3818 25.7249 53.3312 27.0784 53.3312 29.0668C53.3312 31.0734 54.3818 32.4173 55.9437 32.4173C57.5336 32.4173 58.5756 31.1013 58.5756 29.0668Z" fill="white"/>
<path d="M71.6381 29.0668C71.6381 32.1616 69.9816 34.15 67.4819 34.15C66.8487 34.1831 66.219 34.0372 65.6648 33.7291C65.1106 33.4209 64.6544 32.9629 64.3484 32.4076H64.3011V37.3404H62.2569V24.0867H64.2356V25.7431H64.2732C64.5932 25.1904 65.0571 24.7348 65.6155 24.4248C66.1739 24.1147 66.8059 23.9619 67.4443 23.9825C69.972 23.9825 71.6381 25.9805 71.6381 29.0668ZM69.5369 29.0668C69.5369 27.0505 68.4949 25.7249 66.9051 25.7249C65.3432 25.7249 64.2926 27.0784 64.2926 29.0668C64.2926 31.0734 65.3432 32.4173 66.9051 32.4173C68.4949 32.4173 69.5369 31.1013 69.5369 29.0668Z" fill="white"/>
<path d="M78.8826 30.2398C79.0341 31.5944 80.35 32.4838 82.1482 32.4838C83.8713 32.4838 85.1109 31.5944 85.1109 30.373C85.1109 29.3127 84.3633 28.6779 82.593 28.2428L80.8227 27.8163C78.3144 27.2105 77.1499 26.0374 77.1499 24.1339C77.1499 21.7771 79.2038 20.1582 82.1203 20.1582C85.0067 20.1582 86.9854 21.7771 87.052 24.1339H84.9884C84.8649 22.7707 83.7381 21.9479 82.0913 21.9479C80.4445 21.9479 79.3176 22.7804 79.3176 23.9921C79.3176 24.9578 80.0374 25.5261 81.798 25.9611L83.303 26.3306C86.1056 26.9934 87.2701 28.1192 87.2701 30.1173C87.2701 32.6728 85.2344 34.2734 81.9967 34.2734C78.9674 34.2734 76.9221 32.7104 76.79 30.2397L78.8826 30.2398Z" fill="white"/>
<path d="M91.6819 21.7298V24.0867H93.5758V25.7055H91.6819V31.1959C91.6819 32.0488 92.0611 32.4462 92.8936 32.4462C93.1185 32.4423 93.3429 32.4265 93.5661 32.3989V34.0081C93.1918 34.0781 92.8114 34.1097 92.4307 34.1027C90.4144 34.1027 89.628 33.3453 89.628 31.4139V25.7055H88.18V24.0867H89.628V21.7298H91.6819Z" fill="white"/>
<path d="M94.6726 29.0668C94.6726 25.9333 96.5181 23.9642 99.3959 23.9642C102.283 23.9642 104.12 25.9332 104.12 29.0668C104.12 32.2089 102.293 34.1693 99.3959 34.1693C96.4998 34.1693 94.6726 32.2088 94.6726 29.0668ZM102.037 29.0668C102.037 26.9173 101.052 25.6486 99.3959 25.6486C97.7395 25.6486 96.7555 26.9269 96.7555 29.0668C96.7555 31.2249 97.7395 32.4839 99.3959 32.4839C101.052 32.4839 102.037 31.2249 102.037 29.0668Z" fill="white"/>
<path d="M105.806 24.0867H107.755V25.7818H107.803C107.935 25.2524 108.245 24.7845 108.681 24.4568C109.117 24.1291 109.653 23.9616 110.198 23.9825C110.434 23.9816 110.669 24.0072 110.899 24.0587V25.9708C110.601 25.88 110.291 25.8382 109.98 25.8473C109.683 25.8353 109.387 25.8876 109.112 26.0008C108.837 26.114 108.59 26.2853 108.388 26.503C108.186 26.7206 108.033 26.9795 107.94 27.2619C107.847 27.5442 107.816 27.8433 107.85 28.1386V34.0457H105.806L105.806 24.0867Z" fill="white"/>
<path d="M120.324 31.1207C120.049 32.9286 118.288 34.1693 116.036 34.1693C113.138 34.1693 111.34 32.2282 111.34 29.114C111.34 25.9902 113.148 23.9642 115.95 23.9642C118.705 23.9642 120.438 25.857 120.438 28.8766V29.577H113.404V29.7005C113.371 30.0671 113.417 30.4363 113.538 30.7837C113.66 31.1311 113.853 31.4488 114.107 31.7156C114.36 31.9824 114.667 32.1922 115.008 32.3312C115.349 32.4701 115.715 32.535 116.083 32.5214C116.566 32.5667 117.051 32.4548 117.465 32.2024C117.879 31.95 118.201 31.5706 118.383 31.1206L120.324 31.1207ZM113.413 28.1483H118.392C118.411 27.8187 118.361 27.4889 118.246 27.1796C118.13 26.8703 117.953 26.5881 117.723 26.3508C117.494 26.1134 117.218 25.926 116.913 25.8004C116.607 25.6748 116.28 25.6136 115.95 25.6207C115.617 25.6187 115.287 25.6826 114.979 25.8088C114.671 25.9351 114.391 26.121 114.155 26.356C113.919 26.591 113.732 26.8704 113.605 27.178C113.478 27.4856 113.413 27.8154 113.413 28.1483Z" fill="white"/>
<path d="M39.3262 10.4018V17.0001H41.7335C42.3974 17.0001 42.9468 16.8696 43.3819 16.6086C43.8202 16.3476 44.1473 15.9689 44.3632 15.4726C44.5791 14.9763 44.6871 14.3801 44.6871 13.684C44.6871 12.9912 44.5791 12.3998 44.3632 11.91C44.1505 11.4201 43.8266 11.0463 43.3916 10.7885C42.9565 10.5307 42.4038 10.4018 41.7335 10.4018H39.3262ZM40.6313 11.4652H41.5595C41.9688 11.4652 42.3039 11.549 42.5649 11.7166C42.8292 11.8842 43.0242 12.1339 43.1499 12.4659C43.2788 12.7978 43.3432 13.2119 43.3432 13.7082C43.3432 14.082 43.3062 14.4075 43.232 14.6847C43.1611 14.9618 43.0532 15.1938 42.9082 15.3808C42.7664 15.5645 42.5827 15.703 42.3571 15.7965C42.1315 15.8867 41.8656 15.9318 41.5595 15.9318H40.6313V11.4652Z" fill="white"/>
<path d="M48.0347 11.7794C47.5642 11.7794 47.1517 11.8777 46.7972 12.0743C46.4459 12.2709 46.172 12.5464 45.9754 12.9009C45.7788 13.2522 45.6805 13.6663 45.6805 14.1433V14.7088C45.6805 15.218 45.7772 15.6499 45.9706 16.0043C46.1672 16.3588 46.4411 16.6295 46.7924 16.8165C47.1469 17.0001 47.561 17.092 48.0347 17.092C48.502 17.092 48.9113 16.9985 49.2625 16.8116C49.6138 16.6247 49.8861 16.354 50.0795 15.9995C50.2761 15.645 50.3743 15.2148 50.3743 14.7088V14.1336C50.3743 13.6502 50.2761 13.2329 50.0795 12.8816C49.8861 12.5271 49.6138 12.2548 49.2625 12.0646C48.9113 11.8745 48.502 11.7794 48.0347 11.7794ZM48.0347 12.7656C48.2699 12.7656 48.4649 12.8284 48.6196 12.9541C48.7775 13.0798 48.8951 13.249 48.9725 13.4617C49.0498 13.6711 49.0885 13.9064 49.0885 14.1674V14.6992C49.0885 14.957 49.0514 15.1922 48.9773 15.4049C48.9032 15.6176 48.7888 15.7868 48.6341 15.9125C48.4794 16.0382 48.2796 16.101 48.0347 16.101C47.7898 16.101 47.5884 16.0382 47.4304 15.9125C47.2725 15.7836 47.1549 15.6144 47.0776 15.4049C47.0034 15.1922 46.9664 14.957 46.9664 14.6992V14.1674C46.9664 13.9096 47.0051 13.6744 47.0824 13.4617C47.163 13.249 47.2822 13.0798 47.4401 12.9541C47.598 12.8284 47.7962 12.7656 48.0347 12.7656Z" fill="white"/>
<path d="M58.3433 11.8713H57.0768L56.313 15.6563H56.2598L55.2833 11.8713H54.0894L53.1322 15.6563H53.0839L52.3346 11.8713H50.9908L52.3685 17.0001H53.693L54.6646 13.3505H54.7033L55.6942 17.0001H57.0091L58.3433 11.8713Z" fill="white"/>
<path d="M59.2352 17.0001H60.5066V14.1578C60.5066 13.9 60.5485 13.6744 60.6323 13.481C60.716 13.2844 60.8385 13.1313 60.9996 13.0218C61.1608 12.9122 61.3557 12.8574 61.5845 12.8574C61.7586 12.8574 61.9149 12.8945 62.0534 12.9686C62.192 13.0395 62.3016 13.1523 62.3822 13.307C62.4659 13.4617 62.5078 13.6663 62.5078 13.9209V17.0001H63.7792V13.5632C63.7792 12.9702 63.6229 12.5271 63.3103 12.2338C62.9977 11.9374 62.5836 11.7891 62.0679 11.7891C61.7328 11.7891 61.4605 11.8439 61.251 11.9535C61.0415 12.063 60.8804 12.1936 60.7676 12.345C60.658 12.4965 60.5823 12.6399 60.5404 12.7752H60.4776V11.8713H59.2352V17.0001Z" fill="white"/>
<path d="M65.2125 17.0001H66.4887V10.0537H65.2125V17.0001Z" fill="white"/>
<path d="M70.0394 11.7794C69.5689 11.7794 69.1564 11.8777 68.8019 12.0743C68.4506 12.2709 68.1767 12.5464 67.9801 12.9009C67.7835 13.2522 67.6852 13.6663 67.6852 14.1433V14.7088C67.6852 15.218 67.7819 15.6499 67.9753 16.0043C68.1718 16.3588 68.4458 16.6295 68.797 16.8165C69.1515 17.0001 69.5656 17.092 70.0394 17.092C70.5067 17.092 70.9159 16.9985 71.2672 16.8116C71.6185 16.6247 71.8908 16.354 72.0842 15.9995C72.2807 15.645 72.379 15.2148 72.379 14.7088V14.1336C72.379 13.6502 72.2807 13.2329 72.0842 12.8816C71.8908 12.5271 71.6185 12.2548 71.2672 12.0646C70.9159 11.8745 70.5067 11.7794 70.0394 11.7794ZM70.0394 12.7656C70.2746 12.7656 70.4696 12.8284 70.6243 12.9541C70.7822 13.0798 70.8998 13.249 70.9772 13.4617C71.0545 13.6711 71.0932 13.9064 71.0932 14.1674V14.6992C71.0932 14.957 71.0561 15.1922 70.982 15.4049C70.9079 15.6176 70.7935 15.7868 70.6388 15.9125C70.4841 16.0382 70.2843 16.101 70.0394 16.101C69.7945 16.101 69.593 16.0382 69.4351 15.9125C69.2772 15.7836 69.1596 15.6144 69.0822 15.4049C69.0081 15.1922 68.9711 14.957 68.9711 14.6992V14.1674C68.9711 13.9096 69.0097 13.6744 69.0871 13.4617C69.1676 13.249 69.2869 13.0798 69.4448 12.9541C69.6027 12.8284 69.8009 12.7656 70.0394 12.7656Z" fill="white"/>
<path d="M74.9871 17.0775C75.2416 17.0775 75.4592 17.0437 75.6396 16.976C75.8233 16.9051 75.9748 16.8148 76.094 16.7053C76.2165 16.5925 76.3116 16.4732 76.3792 16.3476H76.4373V17.0001H77.6409V13.5535C77.6409 13.1185 77.5458 12.772 77.3557 12.5142C77.1688 12.2564 76.9174 12.0711 76.6016 11.9583C76.2858 11.8455 75.9361 11.7891 75.5526 11.7891C75.2014 11.7891 74.8984 11.8294 74.6438 11.91C74.3893 11.9873 74.1798 12.0953 74.0154 12.2338C73.8511 12.3724 73.7254 12.5335 73.6384 12.7172C73.5546 12.9009 73.5046 13.0975 73.4885 13.307H74.6922C74.7147 13.2006 74.7582 13.1072 74.8227 13.0266C74.8872 12.9428 74.9758 12.8784 75.0886 12.8333C75.2046 12.7849 75.3496 12.7607 75.5236 12.7607C75.7847 12.7607 75.9925 12.8236 76.1472 12.9493C76.3019 13.075 76.3792 13.2667 76.3792 13.5245V13.9837H75.1272C74.5311 13.9837 74.0767 14.1239 73.7641 14.4043C73.4547 14.6814 73.3 15.0504 73.3 15.5113C73.3 15.9947 73.4563 16.3766 73.7689 16.6569C74.0815 16.9373 74.4875 17.0775 74.9871 17.0775ZM75.4028 16.1397C75.1869 16.1397 74.9935 16.0817 74.8227 15.9657C74.6519 15.8497 74.5665 15.6708 74.5665 15.4291C74.5665 15.2325 74.6342 15.0714 74.7695 14.9457C74.9049 14.8168 75.1144 14.7523 75.3979 14.7523H76.3792V15.2841C76.3792 15.4484 76.3341 15.5951 76.2439 15.724C76.1569 15.8529 76.0393 15.9544 75.891 16.0285C75.746 16.1026 75.5832 16.1397 75.4028 16.1397Z" fill="white"/>
<path d="M80.7275 11.8036C80.3408 11.8036 80.0024 11.8938 79.7124 12.0743C79.4223 12.2516 79.1968 12.5078 79.0356 12.8429C78.8777 13.1781 78.7988 13.5809 78.7988 14.0514V14.8152C78.7988 15.2825 78.8777 15.6853 79.0356 16.0237C79.1935 16.3588 79.4159 16.6167 79.7027 16.7971C79.9895 16.9744 80.3263 17.063 80.713 17.063C80.8999 17.063 81.0756 17.042 81.2399 17.0001C81.4043 16.955 81.5525 16.8938 81.6846 16.8165C81.8168 16.7391 81.928 16.6473 82.0182 16.5409C82.1116 16.4313 82.1777 16.3105 82.2164 16.1784H82.2792V17.0001H83.5312V10.0537H82.2551V12.6496H82.197C82.1294 12.4755 82.0262 12.3257 81.8877 12.2C81.7491 12.0711 81.5815 11.9728 81.3849 11.9051C81.1884 11.8375 80.9692 11.8036 80.7275 11.8036ZM81.1529 12.8188C81.3688 12.8188 81.559 12.8703 81.7233 12.9734C81.8877 13.0766 82.0166 13.2216 82.11 13.4085C82.2067 13.5922 82.2551 13.8129 82.2551 14.0708V14.733C82.2551 15.0102 82.2099 15.247 82.1197 15.4436C82.0295 15.6402 81.9022 15.7917 81.7378 15.898C81.5767 16.0011 81.3882 16.0527 81.1722 16.0527C80.9531 16.0527 80.763 15.9995 80.6018 15.8932C80.4439 15.7868 80.3215 15.6321 80.2344 15.4291C80.1474 15.2229 80.1039 14.9731 80.1039 14.6798V14.1819C80.1039 13.8919 80.1458 13.6454 80.2296 13.4423C80.3166 13.2393 80.4391 13.0846 80.597 12.9783C80.7549 12.8719 80.9402 12.8188 81.1529 12.8188Z" fill="white"/>
<path d="M89.192 11.7794C88.7215 11.7794 88.309 11.8777 87.9545 12.0743C87.6032 12.2709 87.3293 12.5464 87.1327 12.9009C86.9362 13.2522 86.8379 13.6663 86.8379 14.1433V14.7088C86.8379 15.218 86.9345 15.6499 87.1279 16.0043C87.3245 16.3588 87.5984 16.6295 87.9497 16.8165C88.3042 17.0001 88.7183 17.092 89.192 17.092C89.6593 17.092 90.0686 16.9985 90.4198 16.8116C90.7711 16.6247 91.0434 16.354 91.2368 15.9995C91.4334 15.645 91.5317 15.2148 91.5317 14.7088V14.1336C91.5317 13.6502 91.4334 13.2329 91.2368 12.8816C91.0434 12.5271 90.7711 12.2548 90.4198 12.0646C90.0686 11.8745 89.6593 11.7794 89.192 11.7794ZM89.192 12.7656C89.4273 12.7656 89.6222 12.8284 89.7769 12.9541C89.9348 13.0798 90.0525 13.249 90.1298 13.4617C90.2071 13.6711 90.2458 13.9064 90.2458 14.1674V14.6992C90.2458 14.957 90.2088 15.1922 90.1346 15.4049C90.0605 15.6176 89.9461 15.7868 89.7914 15.9125C89.6367 16.0382 89.4369 16.101 89.192 16.101C88.9471 16.101 88.7457 16.0382 88.5878 15.9125C88.4299 15.7836 88.3122 15.6144 88.2349 15.4049C88.1608 15.1922 88.1237 14.957 88.1237 14.6992V14.1674C88.1237 13.9096 88.1624 13.6744 88.2397 13.4617C88.3203 13.249 88.4395 13.0798 88.5974 12.9541C88.7553 12.8284 88.9535 12.7656 89.192 12.7656Z" fill="white"/>
<path d="M92.7185 17.0001H93.9898V14.1578C93.9898 13.9 94.0317 13.6744 94.1155 13.481C94.1993 13.2844 94.3218 13.1313 94.4829 13.0218C94.644 12.9122 94.839 12.8574 95.0678 12.8574C95.2418 12.8574 95.3981 12.8945 95.5367 12.9686C95.6753 13.0395 95.7849 13.1523 95.8654 13.307C95.9492 13.4617 95.9911 13.6663 95.9911 13.9209V17.0001H97.2624V13.5632C97.2624 12.9702 97.1061 12.5271 96.7936 12.2338C96.481 11.9374 96.0668 11.7891 95.5512 11.7891C95.2161 11.7891 94.9437 11.8439 94.7343 11.9535C94.5248 12.063 94.3637 12.1936 94.2509 12.345C94.1413 12.4965 94.0656 12.6399 94.0237 12.7752H93.9608V11.8713H92.7185V17.0001Z" fill="white"/>
<path d="M101.154 11.9196H100.347V12.8961H101.125V15.55C101.125 15.898 101.178 16.1816 101.285 16.4007C101.391 16.6167 101.568 16.7762 101.816 16.8793C102.064 16.9792 102.401 17.0292 102.827 17.0292C102.972 17.0292 103.12 17.0227 103.271 17.0098C103.426 16.9969 103.527 16.9856 103.576 16.976V16.0334C103.531 16.0366 103.466 16.0414 103.382 16.0479C103.299 16.0511 103.216 16.0527 103.136 16.0527C102.868 16.0527 102.677 16.006 102.561 15.9125C102.448 15.8158 102.391 15.6402 102.391 15.3856V12.8961H103.527V11.9196H102.391V10.6435H101.154V11.9196Z" fill="white"/>
<path d="M104.7 17.0001H105.966V14.1578C105.966 13.9 106.01 13.6744 106.097 13.481C106.184 13.2844 106.308 13.1313 106.469 13.0218C106.633 12.9122 106.827 12.8574 107.049 12.8574C107.226 12.8574 107.386 12.8945 107.528 12.9686C107.67 13.0395 107.782 13.1539 107.866 13.3118C107.95 13.4665 107.992 13.6711 107.992 13.9257V17.0001H109.263V13.5729C109.263 12.9767 109.104 12.5303 108.785 12.2338C108.469 11.9374 108.061 11.7891 107.562 11.7891C107.23 11.7891 106.957 11.8455 106.745 11.9583C106.532 12.0711 106.369 12.2048 106.256 12.3595C106.144 12.5142 106.069 12.6528 106.034 12.7752H105.966V10.0537H104.7V17.0001Z" fill="white"/>
<path d="M112.756 17.092C113.123 17.092 113.439 17.042 113.703 16.9421C113.967 16.8422 114.185 16.7133 114.356 16.5554C114.53 16.3975 114.662 16.2299 114.752 16.0527C114.842 15.8722 114.894 15.7014 114.907 15.5403H113.698C113.682 15.6466 113.631 15.7433 113.544 15.8303C113.46 15.9173 113.35 15.9866 113.215 16.0382C113.08 16.0865 112.925 16.1107 112.751 16.1107C112.419 16.1107 112.155 16.0027 111.958 15.7868C111.762 15.5709 111.663 15.2954 111.663 14.9602V14.7185H114.955V14.1288C114.955 13.6454 114.859 13.228 114.665 12.8768C114.472 12.5255 114.206 12.2548 113.868 12.0646C113.529 11.8745 113.138 11.7794 112.693 11.7794C112.268 11.7794 111.882 11.8697 111.538 12.0501C111.193 12.2306 110.919 12.4965 110.716 12.8478C110.516 13.1958 110.416 13.6228 110.416 14.1288V14.7378C110.416 15.2406 110.511 15.6676 110.701 16.0188C110.895 16.3701 111.167 16.6376 111.518 16.8213C111.87 17.0018 112.282 17.092 112.756 17.092ZM111.663 13.9451C111.663 13.9354 111.663 13.9273 111.663 13.9209C111.663 13.9112 111.663 13.9016 111.663 13.8919C111.663 13.6599 111.707 13.4584 111.794 13.2876C111.881 13.1136 112.002 12.9783 112.156 12.8816C112.311 12.7849 112.491 12.7366 112.698 12.7366C112.904 12.7366 113.083 12.7849 113.234 12.8816C113.389 12.9783 113.508 13.1136 113.592 13.2876C113.679 13.4584 113.723 13.6599 113.723 13.8919C113.723 13.9016 113.723 13.9112 113.723 13.9209C113.723 13.9273 113.723 13.9354 113.723 13.9451H111.663Z" fill="white"/>
</svg>
