<svg width="24" height="24" viewBox="0 0 24 24" fill="none" xmlns="http://www.w3.org/2000/svg">
<path d="M13 16C13 16.5523 12.5523 17 12 17C11.4477 17 11 16.5523 11 16C11 15.4477 11.4477 15 12 15C12.5523 15 13 15.4477 13 16Z" fill="white"/>
<path d="M10.5 9.5C10.5 8.94772 10.9477 8.5 11.5 8.5H12.5845C13.0901 8.5 13.5 8.90987 13.5 9.41548C13.5 9.73705 13.3313 10.035 13.0555 10.2005L12.4565 10.5599C11.5529 11.1021 11 12.0786 11 13.1324V13.5C11 14.0523 11.4477 14.5 12 14.5C12.5523 14.5 13 14.0523 13 13.5V13.1324C13 12.7811 13.1843 12.4556 13.4855 12.2749L14.0845 11.9155C14.9627 11.3886 15.5 10.4396 15.5 9.41548C15.5 7.8053 14.1947 6.5 12.5845 6.5H11.5C9.84315 6.5 8.5 7.84315 8.5 9.5V10C8.5 10.5523 8.94772 11 9.5 11C10.0523 11 10.5 10.5523 10.5 10V9.5Z" fill="white"/>
<path fill-rule="evenodd" clip-rule="evenodd" d="M9.38747 3.38754C11.38 2.78311 13.5205 2.88826 15.4442 3.68509C17.3679 4.48191 18.9558 5.9211 19.9373 7.75743C20.9189 9.59377 21.2333 11.7136 20.8271 13.7558C20.4209 15.798 19.3191 17.6362 17.7096 18.9571C16.1 20.278 14.0822 21 12 21H4.00003C3.59557 21 3.23093 20.7564 3.07615 20.3827C2.92137 20.009 3.00692 19.5789 3.29292 19.2929L4.96836 17.6175C3.88696 16.2638 3.21458 14.6205 3.04337 12.8822C2.83928 10.81 3.36 8.73115 4.51681 6.99987C5.67361 5.26858 7.39493 3.99197 9.38747 3.38754ZM14.6788 5.53285C13.1826 4.9131 11.5178 4.83131 9.96804 5.30142C8.41829 5.77153 7.07949 6.76446 6.17975 8.11101C5.28001 9.45756 4.875 11.0744 5.03374 12.6861C5.19248 14.2978 5.90513 15.8046 7.05028 16.9497L7.75739 17.6569L6.41424 19H12C13.6195 19 15.1889 18.4385 16.4408 17.4111C17.6927 16.3837 18.5496 14.954 18.8655 13.3656C19.1815 11.7773 18.9369 10.1285 18.1735 8.70023C17.4101 7.27197 16.175 6.1526 14.6788 5.53285Z" fill="white"/>
</svg>
