<svg width="48" height="48" viewBox="0 0 48 48" fill="none" xmlns="http://www.w3.org/2000/svg">
  <g clip-path="url(#clip0)">
    <path d="M17.4141 2.18431C11.5881 3.95031 6.7941 7.88831 3.9161 13.2723C1.0381 18.6563 0.424101 24.8283 2.1901 30.6563C5.8421 42.7023 18.6121 49.5303 30.6601 45.8803C40.5081 42.8943 46.8681 33.8163 46.8681 24.0203C46.8681 21.8343 46.5501 19.6083 45.8841 17.4103C42.2321 5.36231 29.4601 -1.46769 17.4141 2.18431ZM44.5501 17.8123C47.9781 29.1223 41.5661 41.1143 30.2561 44.5443C24.7861 46.2023 18.9881 45.6263 13.9341 42.9243C8.8781 40.2203 5.1801 35.7203 3.5221 30.2483C2.8961 28.1823 2.5981 26.0963 2.5981 24.0423C2.5981 14.8463 8.5721 6.32031 17.8161 3.51831C29.1281 0.0883141 41.1201 6.50231 44.5501 17.8123Z" fill="white"/>
    <path d="M10.5701 14.5763C10.4681 14.6803 10.4761 14.8383 10.5701 14.9323L11.0941 15.4563C11.1881 15.5503 11.3461 15.5583 11.4501 15.4563L12.9741 13.9343L18.4561 19.4263C18.5501 19.5203 18.7181 19.5203 18.8121 19.4263L19.4301 18.8103C19.5241 18.7163 19.5241 18.5483 19.4301 18.4543L13.9461 12.9623L15.4701 11.4403C15.5721 11.3363 15.5641 11.1783 15.4701 11.0843L14.9461 10.5603C14.8521 10.4663 14.6941 10.4583 14.5901 10.5603L10.5701 14.5763Z" fill="white"/>
    <path d="M26.9923 16.9663C26.8983 17.0583 26.8883 17.2183 26.9923 17.3223L27.5983 17.9303C27.6923 18.0243 27.8603 18.0243 27.9543 17.9303L30.3423 15.5503L31.7523 16.9643L30.5123 20.6843C30.4943 20.7403 30.5023 20.8443 30.5783 20.9183L31.3063 21.6483C31.4643 21.8083 31.6803 21.7223 31.7363 21.5363L32.8363 17.8803C33.9763 18.3683 35.2583 18.2303 36.1203 17.3723C37.2343 16.2603 37.2103 14.4563 36.0883 13.3323L33.5483 10.7843C33.4463 10.6803 33.2863 10.6903 33.1923 10.7843L26.9923 16.9663ZM35.1043 14.1643C35.7103 14.7723 35.7383 15.8103 35.1283 16.4183C34.4823 17.0623 33.4343 17.0423 32.8283 16.4343L31.1663 14.7663L33.4423 12.4963L35.1043 14.1643Z" fill="white"/>
    <path d="M14.3357 29.1826L13.8237 29.6966C13.7317 29.7906 13.7317 29.9586 13.8257 30.0526L16.3277 32.5386L14.1757 34.7046L11.2157 31.7626C11.1137 31.6606 10.9537 31.6686 10.8597 31.7626L10.3377 32.2866C10.2457 32.3806 10.2357 32.5386 10.3397 32.6406L14.0877 36.3646C14.1917 36.4666 14.3497 36.4566 14.4437 36.3646L20.6077 30.1606C20.6997 30.0686 20.7097 29.9086 20.6057 29.8066L19.9957 29.2026C19.9017 29.1086 19.7337 29.1106 19.6417 29.2026L17.1937 31.6666L14.6917 29.1806C14.5977 29.0886 14.4297 29.0886 14.3357 29.1826Z" fill="white"/>
    <path d="M29.5984 34.4324C30.7264 35.5344 32.5344 35.5144 33.6384 34.3844C34.7404 33.2564 34.7184 31.4484 33.5904 30.3464C32.4604 29.2444 30.6524 29.2644 29.5504 30.3944C28.4484 31.5224 28.4684 33.3304 29.5984 34.4324Z" fill="white"/>
  </g>
  <defs>
    <clipPath id="clip0">
      <rect width="45.666" height="45.662" fill="white" transform="translate(1.20007 1.2002)"/>
    </clipPath>
  </defs>
</svg>
