<svg width="24" height="25" viewBox="0 0 24 25" fill="none" xmlns="http://www.w3.org/2000/svg">
<path d="M22 15.0901V22.8281H17.7134V15.6084C17.7134 13.7947 17.0933 12.5569 15.5417 12.5569C14.3572 12.5569 13.6524 13.3911 13.3423 14.198C13.2292 14.4865 13.2001 14.888 13.2001 15.2918V22.8281H8.91198C8.91198 22.8281 8.96973 10.6002 8.91198 9.3333H13.1997V11.2461C13.191 11.2604 13.1797 11.2759 13.1715 11.2897H13.1997V11.2461C13.7693 10.3279 14.7867 9.01627 17.0638 9.01627C19.885 9.01622 22 10.945 22 15.0901ZM4.42646 2.82812C2.95951 2.82812 2 3.83508 2 5.15926C2 6.45458 2.93175 7.49209 4.36954 7.49209H4.39818C5.89355 7.49209 6.82352 6.45477 6.82352 5.15926C6.79535 3.83508 5.89355 2.82812 4.42646 2.82812ZM2.25467 22.8281H6.54114V9.3333H2.25467V22.8281Z" fill="white"/>
</svg>
