<svg width="24" height="25" viewBox="0 0 24 25" fill="none" xmlns="http://www.w3.org/2000/svg">
<path d="M12 4.6314C14.6703 4.6314 14.9863 4.64192 16.0409 4.6897C17.0158 4.73353 17.5453 4.89747 17.8977 5.03423C18.3321 5.19447 18.725 5.45016 19.0474 5.78245C19.3797 6.10489 19.6354 6.49778 19.7957 6.93218C19.9324 7.28285 20.0955 7.8141 20.1397 8.78894C20.188 9.8418 20.1967 10.1578 20.1967 12.8281C20.1967 15.4984 20.1866 15.8144 20.1384 16.8691C20.0946 17.8439 19.9311 18.3734 19.7943 18.7258C19.6279 19.1571 19.373 19.5487 19.0461 19.8756C18.7193 20.2024 18.3276 20.4573 17.8964 20.6238C17.5457 20.7605 17.0145 20.9236 16.0396 20.9679C14.9863 21.0161 14.6703 21.0248 12 21.0248C9.32971 21.0248 9.01368 21.0148 7.95906 20.9665C6.98422 20.9227 6.45472 20.7592 6.1023 20.6225C5.66799 20.4621 5.27512 20.2064 4.95257 19.8742C4.62042 19.5517 4.36475 19.1588 4.20435 18.7245C4.06759 18.3738 3.90453 17.8426 3.86026 16.8677C3.81205 15.8144 3.80328 15.4984 3.80328 12.8281C3.80328 10.1578 3.81336 9.8418 3.86158 8.78718C3.90541 7.81234 4.0689 7.28285 4.20566 6.93043C4.36568 6.49623 4.6209 6.10338 4.95257 5.7807C5.27501 5.44841 5.66791 5.19272 6.1023 5.03247C6.45297 4.89571 6.98422 4.73266 7.95906 4.68795C9.01368 4.64017 9.33015 4.6314 12 4.6314ZM12 2.82988C9.28237 2.82988 8.94354 2.84127 7.87709 2.88993C6.81064 2.93858 6.08565 3.10909 5.44964 3.35499C4.7826 3.60565 4.17816 3.99859 3.67836 4.50648C3.16973 5.00604 2.77617 5.61051 2.52512 6.27776C2.2779 6.91377 2.10871 7.64052 2.06005 8.70522C2.0114 9.76991 2 10.1105 2 12.8281C2 15.5458 2.0114 15.8846 2.06005 16.951C2.10871 18.0175 2.27921 18.7425 2.52512 19.3785C2.78193 20.0428 3.17474 20.6461 3.67836 21.1498C4.18199 21.6534 4.78531 22.0462 5.44964 22.303C6.08565 22.5502 6.81283 22.7194 7.87709 22.7681C8.94135 22.8167 9.28412 22.8281 12 22.8281C14.7159 22.8281 15.0565 22.8167 16.1229 22.7681C17.1894 22.7194 17.9144 22.5489 18.5504 22.303C19.2147 22.0462 19.818 21.6534 20.3216 21.1498C20.8253 20.6461 21.2181 20.0428 21.4749 19.3785C21.7221 18.7425 21.8913 18.0153 21.9399 16.951C21.9886 15.8868 22 15.544 22 12.8281C22 10.1122 21.9886 9.77167 21.9399 8.70522C21.8913 7.63877 21.7208 6.91377 21.4749 6.27776C21.2181 5.61344 20.8253 5.01012 20.3216 4.50649C19.818 4.00286 19.2147 3.61005 18.5504 3.35324C17.9144 3.10602 17.1876 2.93683 16.1229 2.88818C15.0582 2.83952 14.7176 2.82812 12 2.82812" fill="white"/>
<path d="M12 7.69336C10.9844 7.69336 9.99156 7.99452 9.14711 8.55877C8.30267 9.12301 7.6445 9.92499 7.25584 10.8633C6.86718 11.8016 6.76549 12.8341 6.96363 13.8302C7.16177 14.8263 7.65083 15.7412 8.36897 16.4594C9.08712 17.1775 10.0021 17.6666 10.9982 17.8647C11.9943 18.0629 13.0268 17.9612 13.9651 17.5725C14.9034 17.1839 15.7053 16.5257 16.2696 15.6812C16.8338 14.8368 17.135 13.844 17.135 12.8284C17.135 11.4665 16.594 10.1604 15.631 9.19737C14.668 8.23437 13.3619 7.69336 12 7.69336ZM12 16.1619C11.3407 16.1619 10.6962 15.9664 10.148 15.6001C9.5998 15.2338 9.17254 14.7132 8.92024 14.104C8.66793 13.4949 8.60192 12.8247 8.73054 12.178C8.85916 11.5314 9.17665 10.9374 9.64284 10.4712C10.109 10.005 10.703 9.68756 11.3496 9.55894C11.9963 9.43032 12.6665 9.49633 13.2756 9.74864C13.8848 10.0009 14.4054 10.4282 14.7717 10.9764C15.138 11.5246 15.3335 12.1691 15.3335 12.8284C15.3335 13.2661 15.2472 13.6996 15.0797 14.104C14.9122 14.5085 14.6666 14.876 14.3571 15.1855C14.0476 15.4951 13.6801 15.7406 13.2756 15.9081C12.8712 16.0756 12.4377 16.1619 12 16.1619Z" fill="white"/>
<path d="M18.5381 7.49018C18.5381 7.72755 18.4677 7.95959 18.3358 8.15695C18.2039 8.35431 18.0165 8.50814 17.7972 8.59897C17.5779 8.68981 17.3366 8.71358 17.1038 8.66727C16.871 8.62096 16.6571 8.50666 16.4893 8.33881C16.3215 8.17097 16.2072 7.95713 16.1608 7.72432C16.1145 7.49152 16.1383 7.25021 16.2291 7.03091C16.32 6.81161 16.4738 6.62417 16.6712 6.4923C16.8685 6.36043 17.1006 6.29004 17.3379 6.29004C17.4956 6.28998 17.6516 6.32099 17.7973 6.38128C17.9429 6.44157 18.0752 6.52997 18.1867 6.64142C18.2982 6.75288 18.3866 6.88521 18.4468 7.03084C18.5071 7.17647 18.5381 7.33256 18.5381 7.49018Z" fill="white"/>
</svg>
