<svg width="24" height="25" viewBox="0 0 24 25" fill="none" xmlns="http://www.w3.org/2000/svg">
<path d="M7.31929 13.4801H9.48929V22.5055C9.48929 22.6837 9.6322 22.8281 9.80858 22.8281H13.4879C13.6643 22.8281 13.8072 22.6837 13.8072 22.5055V13.5226H16.3018C16.464 13.5226 16.6004 13.3997 16.619 13.2369L16.9978 9.91419C17.0082 9.82277 16.9796 9.73122 16.919 9.66264C16.8584 9.594 16.7717 9.55471 16.6807 9.55471H13.8073V7.47187C13.8073 6.844 14.1419 6.52561 14.802 6.52561C14.896 6.52561 16.6807 6.52561 16.6807 6.52561C16.8571 6.52561 17 6.38116 17 6.20303V3.15309C17 2.9749 16.8571 2.83051 16.6807 2.83051H14.0915C14.0733 2.82961 14.0327 2.82812 13.973 2.82812C13.5237 2.82812 11.9622 2.91722 10.7287 4.06367C9.36195 5.33412 9.55193 6.85529 9.59734 7.11903V9.55464H7.31929C7.14292 9.55464 7 9.69903 7 9.87722V13.1575C7 13.3357 7.14292 13.4801 7.31929 13.4801Z" fill="white"/>
</svg>
