<svg width="20" height="20" viewBox="0 0 20 20" fill="none" xmlns="http://www.w3.org/2000/svg">
<path d="M10.4379 0.0166665C11.5295 0 12.6128 0.00833323 13.6962 0C13.7628 1.27498 14.2211 2.57497 15.1545 3.47496C16.0878 4.39994 17.4044 4.82494 18.6878 4.9666V8.3249C17.4878 8.28323 16.2795 8.03323 15.1878 7.51657C14.7128 7.29991 14.2711 7.02491 13.8378 6.74158C13.8295 9.17488 13.8462 11.6082 13.8212 14.0332C13.7545 15.1998 13.3712 16.3581 12.6962 17.3165C11.6045 18.9164 9.71287 19.9581 7.77123 19.9914C6.57958 20.0581 5.38793 19.7331 4.37127 19.1331C2.68796 18.1414 1.50464 16.3248 1.32964 14.3748C1.31298 13.9582 1.30464 13.5415 1.32131 13.1332C1.47131 11.5499 2.25463 10.0332 3.47128 8.99989C4.8546 7.7999 6.78791 7.22491 8.59622 7.56657C8.61288 8.79989 8.56289 10.0332 8.56289 11.2665C7.7379 10.9999 6.77124 11.0749 6.04625 11.5749C5.52126 11.9165 5.12126 12.4415 4.91293 13.0332C4.73793 13.4582 4.78793 13.9248 4.79627 14.3748C4.99626 15.7415 6.31291 16.8915 7.7129 16.7665C8.64622 16.7581 9.53787 16.2165 10.0212 15.4248C10.1795 15.1498 10.3545 14.8665 10.3629 14.5415C10.4462 13.0498 10.4129 11.5665 10.4212 10.0749C10.4295 6.71658 10.4129 3.36662 10.4379 0.0166665Z" fill="white"/>
</svg>
