<svg width="24" height="24" viewBox="0 0 24 24" fill="none" xmlns="http://www.w3.org/2000/svg">
<path fill-rule="evenodd" clip-rule="evenodd" d="M12 24.0078C18.6274 24.0078 24 18.6352 24 12.0078C24 5.3804 18.6274 0.0078125 12 0.0078125C5.37258 0.0078125 0 5.3804 0 12.0078C0 18.6352 5.37258 24.0078 12 24.0078ZM17.7071 8.30071C18.0976 8.69123 18.0976 9.3244 17.7071 9.71492L10.7071 16.7149C10.3166 17.1054 9.68342 17.1054 9.29289 16.7149L5.29289 12.7149C4.90237 12.3244 4.90237 11.6912 5.29289 11.3007C5.68342 10.9102 6.31658 10.9102 6.70711 11.3007L10 14.5936L16.2929 8.30071C16.6834 7.91018 17.3166 7.91018 17.7071 8.30071Z" fill="#192FB1"/>
</svg>
