<svg width="24" height="24" viewBox="0 0 24 24" fill="none" xmlns="http://www.w3.org/2000/svg">
<path fill-rule="evenodd" clip-rule="evenodd" d="M17.3287 18.743C15.6048 20.1536 13.4013 21 11 21C5.47715 21 1 16.5228 1 11C1 5.47715 5.47715 1 11 1C16.5228 1 21 5.47715 21 11C21 13.4013 20.1536 15.6049 18.7429 17.3288L22.7071 21.2929C23.0976 21.6834 23.0976 22.3166 22.7071 22.7071C22.3165 23.0976 21.6834 23.0976 21.2928 22.7071L17.3287 18.743ZM19 11C19 15.4183 15.4183 19 11 19C6.58172 19 3 15.4183 3 11C3 6.58172 6.58172 3 11 3C15.4183 3 19 6.58172 19 11Z" fill="#192FB1"/>
</svg>
