<svg width="24" height="24" viewBox="0 0 24 24" fill="none" xmlns="http://www.w3.org/2000/svg">
<path d="M0.00012207 8.06137C0.178363 7.86009 0.346728 7.6494 0.536256 7.4594C2.41743 5.57211 4.31036 3.69611 6.17883 1.7966C6.53626 1.43353 7.02066 1.50878 7.30613 1.79754C7.94478 2.44466 8.5952 3.08003 9.23057 3.73044C9.4215 3.92561 9.62608 4.01121 9.9012 4.00886C11.2491 3.99898 12.5974 3.99663 13.9453 4.0098C14.281 4.01309 14.5383 3.89975 14.7631 3.66836C15.3731 3.04005 15.9891 2.41738 16.5958 1.78578C16.9904 1.37521 17.4419 1.39732 17.8322 1.79189C18.2771 2.24196 18.707 2.70708 19.1533 3.15527C20.6794 4.68843 22.2055 6.22159 23.7424 7.74392C24.0843 8.08254 24.0843 8.56412 23.7504 8.88862C23.1037 9.51646 22.4768 10.1641 21.8344 10.7966C21.6007 11.0266 21.4986 11.2998 21.493 11.6173C21.4798 12.3848 21.2687 13.0902 20.8379 13.7279C20.772 13.8258 20.7495 13.9019 20.8355 14.0205C21.548 15.0029 21.231 16.5393 20.1103 17.0938C19.9692 17.1634 19.8263 17.234 19.6777 17.2838C19.5281 17.3341 19.3696 17.3586 19.2605 17.3845C19.1185 17.7489 19.0197 18.1115 18.8429 18.4304C18.6251 18.8231 18.2828 19.11 17.8468 19.2591C17.6831 19.315 17.5105 19.3456 17.3464 19.4001C17.2359 19.4373 17.1268 19.474 17.1164 19.6343C17.0605 20.4828 16.3466 21.2211 15.5264 21.4116C14.9004 21.5569 14.297 21.4906 13.7745 21.0636C13.7397 21.0353 13.6955 21.017 13.6537 20.9996C13.6334 20.9911 13.6076 20.9963 13.585 20.9954C13.244 21.5785 12.8057 22.07 12.176 22.3319C11.4598 22.6296 10.7609 22.5647 10.1147 22.1053C9.79257 21.8762 9.55648 21.5823 9.40598 21.2178C9.3599 21.1059 9.30111 21.0739 9.16284 21.1125C7.93209 21.4525 6.8015 20.6619 6.54002 19.5299C6.51462 19.419 6.49581 19.3066 6.46806 19.165C5.95027 19.1104 5.46164 18.9115 5.07882 18.5188C4.70164 18.1318 4.46461 17.6695 4.45944 17.1042C3.91108 17.083 3.44361 16.8634 3.06502 16.4989C2.72641 16.173 2.52748 15.7568 2.44094 15.2804C2.33042 14.6742 2.50725 14.1564 2.8327 13.6621C2.86703 13.6099 2.85386 13.4961 2.81953 13.4345C2.52089 12.9007 2.4179 12.326 2.39391 11.7212C2.37839 11.3247 2.22085 10.9654 1.93303 10.6767C1.4237 10.1664 0.91108 9.65896 0.405515 9.14493C0.259724 8.99726 0.134156 8.83077 0.00012207 8.67275C0.00012207 8.46912 0.00012207 8.26501 0.00012207 8.06137ZM3.9219 12.5122C3.98868 12.4544 4.03006 12.4219 4.06722 12.3857C4.77501 11.6967 5.78708 11.6097 6.62232 12.0607C6.99667 12.2625 7.2591 12.5762 7.47684 12.9355C7.50694 12.9849 7.62263 13.0371 7.66308 13.0169C8.10092 12.7986 8.5524 12.7638 9.02787 12.8555C9.62185 12.9703 10.0841 13.2722 10.4039 13.782C10.8324 14.4654 10.8357 15.1764 10.5276 15.9073C10.5069 15.9557 10.5427 16.0742 10.5859 16.0968C11.274 16.4622 11.6587 17.0294 11.7631 17.7979C11.7701 17.8496 11.8482 17.9248 11.9009 17.9319C12.4431 18.0076 12.897 18.246 13.2793 18.6345C13.6913 19.0535 14.1099 19.466 14.5251 19.8822C14.7664 20.1244 15.2795 20.1314 15.5551 19.8145C15.8104 19.521 15.8269 19.1241 15.5565 18.8438C15.1172 18.3881 14.6775 17.9333 14.2378 17.479C13.941 17.1724 13.9368 16.7609 14.2279 16.4782C14.5058 16.2083 14.955 16.2205 15.2414 16.5064C15.6679 16.933 16.1015 17.353 16.5178 17.7899C16.7807 18.0659 17.2114 18.1487 17.5675 17.7955C17.86 17.5053 17.8553 17.0538 17.5515 16.7486C17.148 16.3432 16.7364 15.9454 16.3409 15.5324C16.149 15.3321 15.9774 15.1026 16.0536 14.7969C16.2149 14.1512 16.965 14.1263 17.3135 14.486C17.7443 14.9305 18.1859 15.3641 18.6242 15.801C18.809 15.9853 19.197 16.0272 19.4185 15.8913C19.886 15.6044 19.942 15.0513 19.5422 14.6469C18.0222 13.1109 16.5036 11.5745 14.9775 10.0446C14.8962 9.96324 14.7513 9.89787 14.6394 9.90257C13.9137 9.93408 13.2177 9.84378 12.5546 9.52539C12.1788 9.3448 11.8097 9.38431 11.4922 9.67166C11.3041 9.8419 11.1418 10.0413 10.9495 10.2054C10.4317 10.6461 9.82314 10.9038 9.15203 10.9711C8.26129 11.0604 7.44486 10.8568 6.69475 10.3324C6.1572 9.95665 6.12428 9.42851 6.52074 9.03864C6.63643 8.92483 6.73754 8.79644 6.84101 8.67134C7.51023 7.86338 8.17899 7.05494 8.84681 6.24604C9.07725 5.96716 9.30534 5.68639 9.53343 5.40751C9.41633 5.37882 9.32839 5.35625 9.23997 5.33649C8.80824 5.2382 8.47245 4.97672 8.16864 4.67667C7.74632 4.25999 7.33434 3.83203 6.93083 3.397C6.78786 3.24275 6.70509 3.25262 6.56165 3.39983C5.56275 4.42554 4.55632 5.44419 3.54801 6.46143C2.91641 7.09868 2.27822 7.72887 1.64192 8.3633C2.05718 8.77763 2.46728 9.16609 2.85245 9.5776C3.21975 9.96982 3.55225 10.3983 3.66512 10.9382C3.77093 11.4447 3.83395 11.9596 3.92237 12.5127L3.9219 12.5122ZM17.1475 3.2625C16.744 3.66507 16.2788 4.09868 15.849 4.56474C15.2898 5.17142 14.6182 5.44372 13.7943 5.41315C13.1373 5.3887 12.4779 5.40845 11.8209 5.43384C11.5858 5.44325 11.3318 5.45501 11.155 5.67369C10.8926 5.9982 10.616 6.31141 10.3494 6.63262C9.91578 7.15465 9.48546 7.67949 9.05232 8.20199C8.71371 8.61067 8.37369 9.01795 8.02708 9.43416C8.05954 9.45297 8.076 9.46708 8.09528 9.47319C8.74852 9.67824 9.36695 9.59406 9.92425 9.20183C10.1632 9.03347 10.3611 8.80679 10.577 8.60597C10.9782 8.23209 11.4593 8.05244 12.0001 8.01293C12.4568 7.97954 12.8725 8.13756 13.2826 8.2984C14.0214 8.58857 14.7485 8.56364 15.4596 8.22927C16.0305 7.96073 16.434 7.5163 16.752 6.97217C16.9674 6.60393 17.3318 6.57101 17.6949 6.75255C17.994 6.9021 18.1398 7.40625 17.9569 7.68655C17.7311 8.03221 17.4955 8.37976 17.2133 8.6784C16.9537 8.95352 16.6264 9.16468 16.2751 9.44733C17.4353 10.56 18.5913 11.669 19.7567 12.7869C19.9368 12.4723 20.0482 12.1026 20.0816 11.7061C20.1009 11.4762 20.1108 11.2438 20.1541 11.0181C20.2491 10.5205 20.5209 10.1217 20.8807 9.77371C21.3632 9.30671 21.8391 8.83312 22.3706 8.31063C20.6145 6.61334 18.8876 4.94427 17.1465 3.26156L17.1475 3.2625ZM8.5825 14.1639C8.41508 14.2561 8.21802 14.3172 8.0854 14.4451C7.4157 15.0937 6.762 15.7587 6.10406 16.4194C5.87832 16.6466 5.78144 16.9184 5.88631 17.2283C6.03822 17.676 6.61432 17.9465 7.00279 17.5787C7.73597 16.8836 8.44329 16.1608 9.1492 15.4375C9.36648 15.215 9.40363 14.9201 9.27289 14.6398C9.14873 14.3736 8.92958 14.2109 8.5825 14.1639ZM4.52622 15.6806C4.79147 15.7065 4.98805 15.5503 5.16206 15.3801C5.47951 15.0687 5.77203 14.733 6.08713 14.4197C6.36131 14.1474 6.35378 13.7491 6.16378 13.5022C5.90418 13.1645 5.47716 13.0549 5.17805 13.3141C4.73315 13.6992 4.32165 14.1272 3.92848 14.566C3.73566 14.7814 3.77046 15.0805 3.91578 15.3175C4.04417 15.5273 4.23652 15.6952 4.52669 15.6815L4.52622 15.6806ZM10.4054 18.0532C10.3856 18.0424 10.3659 18.0321 10.3461 18.0212C10.3724 17.6977 10.1806 17.4592 9.91296 17.3412C9.61009 17.2076 9.34485 17.2721 9.10029 17.5166C8.76827 17.8486 8.44094 18.1858 8.09998 18.5085C7.79805 18.7939 7.86342 19.3625 8.11597 19.5916C8.40285 19.8521 8.83458 19.845 9.13039 19.552C9.46947 19.2158 9.81608 18.8861 10.1378 18.5339C10.2582 18.4022 10.3179 18.215 10.4054 18.0532ZM11.6488 19.3484C11.2585 19.3037 11.0981 19.5219 10.8046 19.8714C10.4858 20.2504 10.6137 20.6417 10.8653 20.8966C11.1733 21.2089 11.6389 21.1449 11.8995 20.8341C11.9794 20.7386 12.0744 20.6558 12.1633 20.5683C12.382 20.352 12.4328 20.0896 12.3312 19.8107C12.2071 19.4712 12.0076 19.3484 11.6493 19.3484H11.6488Z" fill="#192FB1"/>
</svg>
