<svg width="24" height="24" viewBox="0 0 24 24" fill="none" xmlns="http://www.w3.org/2000/svg">
<path fill-rule="evenodd" clip-rule="evenodd" d="M8.00132 5.07408C8.02648 3.81822 8.42981 2.78006 9.18436 2.05196C9.95546 1.3079 10.9772 1 12.0001 1C13.023 1 14.0447 1.3079 14.8158 2.05196C15.5703 2.78007 15.9737 3.81825 15.9988 5.07413C17.0989 4.46808 18.1996 4.29832 19.2074 4.58772C20.2373 4.88349 21.0148 5.61436 21.5262 6.50021C22.0377 7.38606 22.2819 8.42483 22.0231 9.46466C21.7698 10.482 21.0726 11.3503 19.9978 12C21.0725 12.6497 21.7698 13.5179 22.023 14.5353C22.2818 15.5751 22.0376 16.6139 21.5262 17.4997C21.0147 18.3856 20.2372 19.1165 19.2073 19.4122C18.1996 19.7016 17.0989 19.5319 15.9989 18.9259C15.9737 20.1817 15.5704 21.2199 14.8158 21.948C14.0447 22.6921 13.023 23 12.0001 23C10.9772 23 9.95552 22.6921 9.18442 21.948C8.42985 21.2199 8.02653 20.1817 8.00137 18.9258C6.90125 19.5319 5.80058 19.7017 4.79281 19.4123C3.76288 19.1165 2.98538 18.3856 2.47394 17.4998C1.96249 16.6139 1.71829 15.5751 1.97711 14.5353C2.23035 13.5179 2.92761 12.6497 4.00238 12C2.92764 11.3503 2.23041 10.482 1.97717 9.46467C1.71835 8.42485 1.96255 7.38608 2.474 6.50023C2.98545 5.61437 3.76294 4.8835 4.79287 4.58774C5.80061 4.29835 6.90123 4.46808 8.00132 5.07408ZM7.03839 13.0084C6.3693 13.1101 5.68268 13.3378 5.11124 13.6677C4.33468 14.1161 4.02066 14.6056 3.91789 15.0184C3.81227 15.4428 3.88901 15.9507 4.20599 16.4998C4.52297 17.0488 4.92453 17.3692 5.34484 17.4899C5.75375 17.6074 6.33468 17.5802 7.11124 17.1318C7.68317 16.8016 8.2241 16.3203 8.64689 15.7912C8.65552 15.7715 8.66422 15.7519 8.673 15.7324C7.88714 15.0314 7.32409 14.0858 7.10327 13.0153C7.08166 13.0131 7.06003 13.0108 7.03839 13.0084ZM16.897 13.0153L16.9618 13.0084C17.6309 13.1101 18.3175 13.3378 18.8889 13.6677C19.6654 14.116 19.9795 14.6055 20.0822 15.0184C20.1879 15.4427 20.1111 15.9507 19.7941 16.4997C19.4772 17.0488 19.0756 17.3692 18.6553 17.4899C18.2464 17.6074 17.6654 17.5802 16.8889 17.1318C16.3171 16.8017 15.7762 16.3205 15.3535 15.7915L15.3272 15.7324C16.1131 15.0313 16.6762 14.0858 16.897 13.0153ZM10.0001 5.2C10.0001 4.3033 10.267 3.7866 10.5731 3.49118C10.8878 3.18753 11.3661 3 12.0001 3C12.634 3 13.1123 3.18753 13.427 3.49118C13.7332 3.7866 14.0001 4.3033 14.0001 5.2C14.0001 5.86046 13.8537 6.56965 13.6068 7.2004L13.5697 7.2513C13.0761 7.08823 12.5484 6.99997 12.0001 6.99997C11.4518 6.99997 10.9241 7.08823 10.4305 7.2513L10.3932 7.20012C10.1464 6.56944 10.0001 5.86036 10.0001 5.2ZM8.6467 8.2085L8.67295 8.26763C7.88321 8.97212 7.3185 9.92353 7.10001 11.0006C6.41162 10.9038 5.70028 10.6723 5.1113 10.3323C4.33473 9.88393 4.02072 9.39444 3.91795 8.98159C3.81233 8.55724 3.88907 8.04925 4.20605 7.50023C4.52303 6.9512 4.92459 6.63075 5.3449 6.51005C5.75382 6.39262 6.33474 6.41982 7.1113 6.86818C7.68311 7.19831 8.22395 7.67951 8.6467 8.2085ZM15.3272 8.26756L15.3533 8.20879C15.7761 7.67968 16.317 7.19835 16.8889 6.86816C17.6655 6.41981 18.2464 6.3926 18.6553 6.51003C19.0757 6.63073 19.4772 6.95118 19.7942 7.50021C20.1112 8.04923 20.1879 8.55722 20.0823 8.98157C19.9795 9.39442 19.6655 9.88391 18.8889 10.3323C18.3 10.6723 17.5886 10.9038 16.9002 11.0006C16.6817 9.92348 16.117 8.97206 15.3272 8.26756ZM12.0001 15C13.657 15 15.0001 13.6568 15.0001 12C15.0001 10.3431 13.657 8.99997 12.0001 8.99997C10.3433 8.99997 9.00012 10.3431 9.00012 12C9.00012 13.6568 10.3433 15 12.0001 15ZM12.0001 17C12.5539 17 13.0867 16.9099 13.5846 16.7437C13.8449 17.3882 14.0001 18.1199 14.0001 18.8C14.0001 19.6967 13.7332 20.2134 13.4271 20.5088C13.1124 20.8124 12.6341 21 12.0001 21C11.3662 21 10.8879 20.8124 10.5732 20.5088C10.267 20.2134 10.0001 19.6967 10.0001 18.8C10.0001 18.1199 10.1553 17.3882 10.4156 16.7437C10.9135 16.9099 11.4463 17 12.0001 17Z" fill="#192FB1"/>
</svg>
